<svg width="129" height="128" viewBox="0 0 129 128" fill="none" xmlns="http://www.w3.org/2000/svg">
<path d="M31 75H38.6774M56.2258 75H63.9032M81.4516 75H89.129M56.2258 35H63.9032M40.871 93H48.5484M66.0968 93H73.7742M91.3226 93H99M66.0968 53H73.7742M65 58V63V70M39.7742 70V63H90.2258V70M32.0968 98H47.4516C48.0573 98 48.5484 97.5523 48.5484 97V71C48.5484 70.4477 48.0573 70 47.4516 70H32.0968C31.491 70 31 70.4477 31 71V97C31 97.5523 31.491 98 32.0968 98ZM57.3226 98H72.6774C73.2832 98 73.7742 97.5523 73.7742 97V71C73.7742 70.4477 73.2832 70 72.6774 70H57.3226C56.7169 70 56.2258 70.4477 56.2258 71V97C56.2258 97.5523 56.7169 98 57.3226 98ZM82.5484 98H97.9032C98.509 98 99 97.5523 99 97V71C99 70.4477 98.509 70 97.9032 70H82.5484C81.9427 70 81.4516 70.4477 81.4516 71V97C81.4516 97.5523 81.9427 98 82.5484 98ZM57.3226 58H72.6774C73.2832 58 73.7742 57.5523 73.7742 57V31C73.7742 30.4477 73.2832 30 72.6774 30H57.3226C56.7169 30 56.2258 30.4477 56.2258 31V57C56.2258 57.5523 56.7169 58 57.3226 58Z" stroke="url(#paint0_linear_704_1995)" stroke-width="2" stroke-linecap="round" stroke-linejoin="round"/>
<defs>
<linearGradient id="paint0_linear_704_1995" x1="31" y1="39.5625" x2="99" y2="98" gradientUnits="userSpaceOnUse">
<stop stop-color="#1E74EC"/>
<stop offset="1" stop-color="#002984"/>
</linearGradient>
</defs>
</svg>
