<svg width="129" height="128" viewBox="0 0 129 128" fill="none" xmlns="http://www.w3.org/2000/svg">
<path d="M93.8258 67.2756H96.5V61.2283H93.8258M93.8258 67.2756H90.4528V61.2283H93.8258M93.8258 67.2756C92.415 81.0033 81.5033 91.915 67.7756 93.3258M93.8258 61.2283C92.415 47.5006 81.5033 36.589 67.7756 35.1781M67.7756 93.3258V89.9528H61.7283V93.3258M67.7756 93.3258V96H61.7283V93.3258M61.7283 93.3258C48.3383 91.9497 37.6275 81.5344 35.7994 68.2835M35.7994 68.2835H38.5472V62.2362H35.592M35.7994 68.2835H32.5V62.2362H35.5236H35.592M35.592 62.2362C36.5592 48.0377 47.6663 36.6233 61.7283 35.1781M61.7283 35.1781V38.0472H67.7756V35.1781M61.7283 35.1781V32H67.7756V35.1781" stroke="url(#paint0_linear_704_1998)" stroke-width="2" stroke-linejoin="round"/>
<line x1="61.5" y1="77.3623" x2="67.563" y2="77.3623" stroke="url(#paint1_linear_704_1998)" stroke-width="2" stroke-linecap="round"/>
<path d="M64.5787 50.1416L54.5 66.5556L61.2192 74.3306H67.9383L74.6575 66.5556L64.5787 50.1416ZM64.5787 50.1416V63.3356" stroke="url(#paint2_linear_704_1998)" stroke-width="2" stroke-linejoin="round"/>
<circle cx="64.5157" cy="66.2677" r="3.01575" stroke="url(#paint3_linear_704_1998)" stroke-width="2"/>
<defs>
<linearGradient id="paint0_linear_704_1998" x1="32.5" y1="41" x2="96.5" y2="96" gradientUnits="userSpaceOnUse">
<stop stop-color="#1E74EC"/>
<stop offset="1" stop-color="#002984"/>
</linearGradient>
<linearGradient id="paint1_linear_704_1998" x1="60.5" y1="78.5029" x2="60.786" y2="80.4847" gradientUnits="userSpaceOnUse">
<stop stop-color="#1E74EC"/>
<stop offset="1" stop-color="#002984"/>
</linearGradient>
<linearGradient id="paint2_linear_704_1998" x1="54.5" y1="53.5432" x2="77.6642" y2="70.1321" gradientUnits="userSpaceOnUse">
<stop stop-color="#1E74EC"/>
<stop offset="1" stop-color="#002984"/>
</linearGradient>
<linearGradient id="paint3_linear_704_1998" x1="62.5" y1="64.8189" x2="66.5315" y2="68.2834" gradientUnits="userSpaceOnUse">
<stop stop-color="#1E74EC"/>
<stop offset="1" stop-color="#002984"/>
</linearGradient>
</defs>
</svg>
