<svg width="129" height="128" viewBox="0 0 129 128" fill="none" xmlns="http://www.w3.org/2000/svg">
<path d="M42.5505 92.0439L65.8232 69.0965M47.0758 96.5059L70.3485 73.5585M71.6414 64.6345L85.8636 50.6111V44.8743L94.2677 42.3246L97.5 45.5117L94.9141 53.7983H88.4495L74.8737 67.8217L78.7525 71.6462L49.0151 101.605C49.0151 101.605 44.928 103.08 42.5505 102.243C39.5244 101.177 37.7485 99.5117 36.7323 96.5059C36.0138 94.3805 36.7323 90.7691 36.7323 90.7691L67.1161 60.81L71.6414 64.6345ZM41.904 56.348H51.601V47.424L43.8434 38.5H53.5404C53.5404 38.5 62.3983 43.6358 64.5303 48.6988C66.2728 52.8371 64.5303 60.1725 64.5303 60.1725L66.4697 61.4474L56.7727 71.0088L54.1869 68.4591C54.1869 68.4591 48.5365 69.4108 45.1364 68.4591C38.78 66.6799 33.5 56.348 33.5 56.348V48.6988L41.904 56.348ZM68.4091 82.4825L85.8636 99.6931C85.8636 99.6931 92.905 101.729 95.5606 99.0556C97.8841 96.7165 96.8535 90.7691 96.8535 90.7691L78.1061 72.2837L68.4091 82.4825Z" stroke="url(#paint0_linear_704_1992)" stroke-width="2" stroke-linecap="round" stroke-linejoin="round"/>
<defs>
<linearGradient id="paint0_linear_704_1992" x1="33.5" y1="47.5" x2="97.5" y2="102.5" gradientUnits="userSpaceOnUse">
<stop stop-color="#1E74EC"/>
<stop offset="1" stop-color="#002984"/>
</linearGradient>
</defs>
</svg>
