<svg width="129" height="128" viewBox="0 0 129 128" fill="none" xmlns="http://www.w3.org/2000/svg">
<path d="M78.9604 82.1548C78.5694 81.7647 77.9363 81.7655 77.5462 82.1565C77.1562 82.5475 77.1569 83.1806 77.5479 83.5707L78.9604 82.1548ZM83.5359 76.9381C83.1449 76.548 82.5117 76.5488 82.1216 76.9398C81.7316 77.3308 81.7323 77.9639 82.1233 78.354L83.5359 76.9381ZM87.7123 60.0397C87.7123 74.9711 75.5787 87.0794 60.6061 87.0794V89.0794C76.6788 89.0794 89.7123 76.0801 89.7123 60.0397H87.7123ZM60.6061 87.0794C45.6336 87.0794 33.5 74.9711 33.5 60.0397H31.5C31.5 76.0801 44.5335 89.0794 60.6061 89.0794V87.0794ZM33.5 60.0397C33.5 45.1083 45.6336 33 60.6061 33V31C44.5335 31 31.5 43.9993 31.5 60.0397H33.5ZM60.6061 33C75.5787 33 87.7123 45.1083 87.7123 60.0397H89.7123C89.7123 43.9993 76.6788 31 60.6061 31V33ZM81.1759 60.0397C81.1759 71.3697 71.9688 80.5586 60.6061 80.5586V82.5586C73.0689 82.5586 83.1759 72.4788 83.1759 60.0397H81.1759ZM60.6061 80.5586C49.2435 80.5586 40.0363 71.3697 40.0363 60.0397H38.0363C38.0363 72.4788 48.1434 82.5586 60.6061 82.5586V80.5586ZM40.0363 60.0397C40.0363 48.7097 49.2435 39.5209 60.6061 39.5209V37.5209C48.1434 37.5209 38.0363 47.6007 38.0363 60.0397H40.0363ZM60.6061 39.5209C71.9688 39.5209 81.1759 48.7097 81.1759 60.0397H83.1759C83.1759 47.6007 73.0689 37.5209 60.6061 37.5209V39.5209ZM77.5479 83.5707L89.9669 95.9603L91.3794 94.5444L78.9604 82.1548L77.5479 83.5707ZM89.9669 95.9603C90.875 96.8663 92.0067 97.1202 93.0743 96.9504C94.1065 96.7863 95.0694 96.2344 95.8133 95.5425C96.5558 94.8518 97.163 93.9445 97.3972 92.9716C97.6392 91.9658 97.4799 90.8492 96.6085 89.9798L95.1959 91.3957C95.4767 91.6758 95.5666 92.0305 95.4527 92.5036C95.3309 93.0097 94.9771 93.5889 94.4512 94.078C93.9265 94.566 93.3135 94.8873 92.7602 94.9752C92.2422 95.0576 91.7786 94.9427 91.3794 94.5444L89.9669 95.9603ZM96.6085 89.9798L83.5359 76.9381L82.1233 78.354L95.1959 91.3957L96.6085 89.9798Z" fill="url(#paint0_linear_704_2004)"/>
<path d="M60.4527 46.3459L74.0381 69.8211H46.8672L60.4527 46.3459Z" stroke="url(#paint1_linear_704_2004)" stroke-width="2" stroke-linejoin="round"/>
<path d="M61.5113 54.1709L61.3423 63.6308H59.5421L59.3731 54.1709H61.5113ZM60.4455 67.5729C60.0858 67.5729 59.7782 67.4476 59.5226 67.1969C59.2669 66.9419 59.1413 66.635 59.1456 66.2762C59.1413 65.9217 59.2669 65.6192 59.5226 65.3684C59.7782 65.1134 60.0858 64.9859 60.4455 64.9859C60.7964 64.9859 61.0997 65.1134 61.3553 65.3684C61.611 65.6192 61.741 65.9217 61.7453 66.2762C61.741 66.5139 61.6781 66.7322 61.5568 66.931C61.4398 67.1256 61.2838 67.2812 61.0889 67.3979C60.8939 67.5146 60.6794 67.5729 60.4455 67.5729Z" fill="url(#paint2_linear_704_2004)"/>
<defs>
<linearGradient id="paint0_linear_704_2004" x1="32.5" y1="41" x2="96.5" y2="96" gradientUnits="userSpaceOnUse">
<stop stop-color="#1E74EC"/>
<stop offset="1" stop-color="#002984"/>
</linearGradient>
<linearGradient id="paint1_linear_704_2004" x1="46.8672" y1="49.6471" x2="70.6121" y2="73.2655" gradientUnits="userSpaceOnUse">
<stop stop-color="#1E74EC"/>
<stop offset="1" stop-color="#002984"/>
</linearGradient>
<linearGradient id="paint2_linear_704_2004" x1="59.1455" y1="56.0556" x2="63.5431" y2="56.7887" gradientUnits="userSpaceOnUse">
<stop stop-color="#1E74EC"/>
<stop offset="1" stop-color="#002984"/>
</linearGradient>
</defs>
</svg>
