<svg width="207" height="152" viewBox="0 0 207 152" fill="none" xmlns="http://www.w3.org/2000/svg">
<path d="M89.4297 47.9302V32C89.4297 31.4477 89.8774 31 90.4297 31H127.499C128.052 31 128.499 31.4477 128.499 32V95.1163C128.499 95.6686 128.052 96.1163 127.499 96.1163H90.4297C89.8774 96.1163 89.4297 95.6686 89.4297 95.1163V78.5349M89.4297 58.3488V68.1163M89.4297 41.4186H128.5M89.4297 83.093H128.5M103.453 88.6047H114.476M103.453 46.9302H122.29M113.872 52.1395H122.29" stroke="url(#paint0_linear_117_5276)" stroke-width="2" stroke-linecap="round" stroke-linejoin="round"/>
<mask id="path-2-inside-1_117_5276" fill="white">
<path fill-rule="evenodd" clip-rule="evenodd" d="M85.7452 48.1216C85.7452 47.5693 86.1929 47.1216 86.7452 47.1216H92.2174C92.7697 47.1216 93.2174 47.5693 93.2174 48.1216V50.4652C95.1719 51.0469 96.9349 52.0732 98.3891 53.4269L100.239 52.3588C100.717 52.0826 101.329 52.2465 101.605 52.7248L104.341 57.4639C104.617 57.9422 104.454 58.5538 103.975 58.8299L102.18 59.8665C102.427 60.8704 102.558 61.9199 102.558 63C102.558 64.1012 102.422 65.1706 102.165 66.1922L103.975 67.2372C104.454 67.5133 104.617 68.1249 104.341 68.6032L101.605 73.3423C101.329 73.8206 100.717 73.9845 100.239 73.7083L98.3445 72.6145C96.8989 73.9477 95.152 74.9591 93.2174 75.5349V77.8785C93.2174 78.4307 92.7697 78.8785 92.2174 78.8785H86.7452C86.1929 78.8785 85.7452 78.4307 85.7452 77.8785V75.5349C83.7219 74.9327 81.9038 73.854 80.4211 72.4289L78.205 73.7083C77.7267 73.9845 77.1151 73.8206 76.839 73.3423L74.1029 68.6032C73.8267 68.1249 73.9906 67.5134 74.4689 67.2372L76.7343 65.9293C76.5188 64.9876 76.405 64.0071 76.405 63C76.405 62.0141 76.5141 61.0536 76.7209 60.1301L74.4689 58.8299C73.9906 58.5537 73.8267 57.9422 74.1029 57.4639L76.839 52.7248C77.1151 52.2465 77.7267 52.0826 78.205 52.3588L80.3776 53.6131C81.8682 52.1672 83.7021 51.0732 85.7452 50.4652V48.1216ZM89.4998 68C92.2612 68 94.4998 65.7614 94.4998 63C94.4998 60.2386 92.2612 58 89.4998 58C86.7383 58 84.4998 60.2386 84.4998 63C84.4998 65.7614 86.7383 68 89.4998 68Z"/>
</mask>
<path d="M93.2174 50.4652H91.2174V51.9566L92.6469 52.3821L93.2174 50.4652ZM98.3891 53.4269L97.0263 54.8908L98.1086 55.8982L99.3891 55.159L98.3891 53.4269ZM100.239 52.3588L99.2391 50.6267V50.6267L100.239 52.3588ZM101.605 52.7248L99.8731 53.7248L99.8731 53.7248L101.605 52.7248ZM104.341 57.4639L106.073 56.4639L104.341 57.4639ZM103.975 58.8299L102.975 57.0978L103.975 58.8299ZM102.18 59.8665L101.18 58.1344L99.879 58.8855L100.238 60.3441L102.18 59.8665ZM102.165 66.1922L100.225 65.7056L99.8581 67.1696L101.165 67.9243L102.165 66.1922ZM103.975 67.2372L102.975 68.9693V68.9693L103.975 67.2372ZM104.341 68.6032L106.073 69.6032L104.341 68.6032ZM101.605 73.3423L99.8731 72.3423H99.8731L101.605 73.3423ZM100.239 73.7083L101.239 71.9763L101.239 71.9763L100.239 73.7083ZM98.3445 72.6145L99.3445 70.8824L98.0702 70.1467L96.9885 71.1443L98.3445 72.6145ZM93.2174 75.5349L92.6469 73.618L91.2174 74.0434V75.5349H93.2174ZM85.7452 75.5349H87.7452V74.0434L86.3157 73.618L85.7452 75.5349ZM80.4211 72.4289L81.807 70.9869L80.7231 69.9451L79.4211 70.6968L80.4211 72.4289ZM78.205 73.7083L79.205 75.4404L79.205 75.4404L78.205 73.7083ZM76.839 73.3423L75.1069 74.3423H75.1069L76.839 73.3423ZM74.1029 68.6032L75.8349 67.6032L74.1029 68.6032ZM74.4689 67.2372L75.4689 68.9693L75.4689 68.9693L74.4689 67.2372ZM76.7343 65.9293L77.7343 67.6613L79.0134 66.9228L78.6839 65.4831L76.7343 65.9293ZM76.7209 60.1301L78.6726 60.5671L78.9937 59.1329L77.7209 58.398L76.7209 60.1301ZM74.4689 58.8299L75.4689 57.0978H75.4689L74.4689 58.8299ZM74.1029 57.4639L75.8349 58.4639H75.8349L74.1029 57.4639ZM76.839 52.7248L78.571 53.7248L78.571 53.7248L76.839 52.7248ZM78.205 52.3588L79.205 50.6267L79.205 50.6267L78.205 52.3588ZM80.3776 53.6131L79.3776 55.3452L80.6858 56.1005L81.7701 55.0487L80.3776 53.6131ZM85.7452 50.4652L86.3157 52.3821L87.7452 51.9566V50.4652H85.7452ZM86.7452 45.1216C85.0884 45.1216 83.7452 46.4647 83.7452 48.1216H87.7452C87.7452 48.6739 87.2975 49.1216 86.7452 49.1216V45.1216ZM92.2174 45.1216H86.7452V49.1216H92.2174V45.1216ZM95.2174 48.1216C95.2174 46.4647 93.8743 45.1216 92.2174 45.1216V49.1216C91.6651 49.1216 91.2174 48.6739 91.2174 48.1216H95.2174ZM95.2174 50.4652V48.1216H91.2174V50.4652H95.2174ZM99.7518 51.963C98.077 50.4039 96.0443 49.2198 93.7879 48.5483L92.6469 52.3821C94.2995 52.8739 95.7929 53.7425 97.0263 54.8908L99.7518 51.963ZM99.2391 50.6267L97.3891 51.6948L99.3891 55.159L101.239 54.0908L99.2391 50.6267ZM103.337 51.7248C102.509 50.2899 100.674 49.7983 99.2391 50.6267L101.239 54.0908C100.761 54.367 100.149 54.2031 99.8731 53.7248L103.337 51.7248ZM106.073 56.4639L103.337 51.7248L99.8731 53.7248L102.609 58.4639L106.073 56.4639ZM104.975 60.5619C106.41 59.7335 106.902 57.8987 106.073 56.4639L102.609 58.4639C102.333 57.9856 102.497 57.374 102.975 57.0978L104.975 60.5619ZM103.18 61.5985L104.975 60.5619L102.975 57.0978L101.18 58.1344L103.18 61.5985ZM104.558 63C104.558 61.7577 104.407 60.5478 104.122 59.3888L100.238 60.3441C100.446 61.1929 100.558 62.0821 100.558 63H104.558ZM104.105 66.6789C104.401 65.4994 104.558 64.2666 104.558 63H100.558C100.558 63.9358 100.442 64.8417 100.225 65.7056L104.105 66.6789ZM104.975 65.5052L103.165 64.4602L101.165 67.9243L102.975 68.9693L104.975 65.5052ZM106.073 69.6032C106.902 68.1684 106.41 66.3336 104.975 65.5052L102.975 68.9693C102.497 68.6931 102.333 68.0815 102.609 67.6032L106.073 69.6032ZM103.337 74.3423L106.073 69.6032L102.609 67.6032L99.8731 72.3423L103.337 74.3423ZM99.2391 75.4404C100.674 76.2688 102.509 75.7772 103.337 74.3423L99.8731 72.3423C100.149 71.864 100.761 71.7001 101.239 71.9763L99.2391 75.4404ZM97.3445 74.3465L99.2391 75.4404L101.239 71.9763L99.3445 70.8824L97.3445 74.3465ZM93.7879 77.4518C96.0213 76.7871 98.0355 75.6202 99.7004 74.0846L96.9885 71.1443C95.7624 72.2752 94.2827 73.1311 92.6469 73.618L93.7879 77.4518ZM95.2174 77.8785V75.5349H91.2174V77.8785H95.2174ZM92.2174 80.8785C93.8743 80.8785 95.2174 79.5353 95.2174 77.8785H91.2174C91.2174 77.3262 91.6651 76.8785 92.2174 76.8785V80.8785ZM86.7452 80.8785H92.2174V76.8785H86.7452V80.8785ZM83.7452 77.8785C83.7452 79.5353 85.0884 80.8785 86.7452 80.8785V76.8785C87.2975 76.8785 87.7452 77.3262 87.7452 77.8785H83.7452ZM83.7452 75.5349V77.8785H87.7452V75.5349H83.7452ZM79.0352 73.8708C80.7428 75.5121 82.8389 76.7566 85.1747 77.4518L86.3157 73.618C84.6049 73.1088 83.0648 72.1958 81.807 70.9869L79.0352 73.8708ZM79.205 75.4404L81.4211 74.1609L79.4211 70.6968L77.205 71.9763L79.205 75.4404ZM75.1069 74.3423C75.9354 75.7772 77.7701 76.2688 79.205 75.4404L77.205 71.9763C77.6833 71.7001 78.2949 71.864 78.571 72.3423L75.1069 74.3423ZM72.3708 69.6032L75.1069 74.3423L78.571 72.3423L75.8349 67.6032L72.3708 69.6032ZM73.4689 65.5052C72.034 66.3336 71.5424 68.1684 72.3708 69.6032L75.8349 67.6032C76.1111 68.0815 75.9472 68.6931 75.4689 68.9693L73.4689 65.5052ZM75.7343 64.1972L73.4689 65.5052L75.4689 68.9693L77.7343 67.6613L75.7343 64.1972ZM74.405 63C74.405 64.1583 74.5359 65.2884 74.7847 66.3754L78.6839 65.4831C78.5017 64.6867 78.405 63.8559 78.405 63H74.405ZM74.7692 59.693C74.5305 60.7591 74.405 61.8661 74.405 63H78.405C78.405 62.1621 78.4977 61.3482 78.6726 60.5671L74.7692 59.693ZM73.4689 60.5619L75.7209 61.8621L77.7209 58.398L75.4689 57.0978L73.4689 60.5619ZM72.3708 56.4639C71.5424 57.8987 72.034 59.7335 73.4689 60.5619L75.4689 57.0978C75.9472 57.374 76.1111 57.9856 75.8349 58.4639L72.3708 56.4639ZM75.1069 51.7248L72.3708 56.4639L75.8349 58.4639L78.571 53.7248L75.1069 51.7248ZM79.205 50.6267C77.7701 49.7983 75.9354 50.2899 75.1069 51.7248L78.571 53.7248C78.2949 54.2031 77.6833 54.367 77.205 54.0908L79.205 50.6267ZM81.3776 51.8811L79.205 50.6267L77.205 54.0908L79.3776 55.3452L81.3776 51.8811ZM85.1747 48.5483C82.816 49.2503 80.7018 50.5123 78.9851 52.1775L81.7701 55.0487C83.0346 53.8221 84.5881 52.8962 86.3157 52.3821L85.1747 48.5483ZM83.7452 48.1216V50.4652H87.7452V48.1216H83.7452ZM92.4998 63C92.4998 64.6569 91.1566 66 89.4998 66V70C93.3657 70 96.4998 66.866 96.4998 63H92.4998ZM89.4998 60C91.1566 60 92.4998 61.3431 92.4998 63H96.4998C96.4998 59.134 93.3657 56 89.4998 56V60ZM86.4998 63C86.4998 61.3431 87.8429 60 89.4998 60V56C85.6338 56 82.4998 59.134 82.4998 63H86.4998ZM89.4998 66C87.8429 66 86.4998 64.6569 86.4998 63H82.4998C82.4998 66.866 85.6338 70 89.4998 70V66Z" fill="url(#paint1_linear_117_5276)" mask="url(#path-2-inside-1_117_5276)"/>
<path d="M28.6487 146H31.1127V137.04H35.5767V146H38.0407V134.8H28.6487V146ZM46.1668 146.192C49.6228 146.192 52.1348 143.584 52.1348 140.4V140.368C52.1348 137.184 49.6548 134.608 46.1988 134.608C42.7428 134.608 40.2308 137.216 40.2308 140.4V140.432C40.2308 143.616 42.7108 146.192 46.1668 146.192ZM46.1988 143.92C44.2148 143.92 42.8068 142.32 42.8068 140.4V140.368C42.8068 138.448 44.1828 136.88 46.1668 136.88C48.1508 136.88 49.5588 138.48 49.5588 140.4V140.432C49.5588 142.352 48.1828 143.92 46.1988 143.92ZM52.8941 143.76V148.272H55.1981V146H63.1021V148.272H65.4061V143.76H64.2541L60.4461 134.72H57.8541L54.0141 143.76H52.8941ZM59.1181 137.44L61.6941 143.856H56.5421L59.1181 137.44ZM66.8472 143.76V148.272H69.1512V146H77.0552V148.272H79.3592V143.76H78.2072L74.3992 134.72H71.8072L67.9672 143.76H66.8472ZM73.0712 137.44L75.6472 143.856H70.4952L73.0712 137.44ZM81.1799 146H89.7079V143.808H83.6279V141.456H88.9079V139.264H83.6279V136.992H89.6279V134.8H81.1799V146ZM91.8987 146H94.3627V142.64H96.2347C98.7467 142.64 100.763 141.296 100.763 138.704V138.672C100.763 136.384 99.1467 134.8 96.4747 134.8H91.8987V146ZM94.3627 140.448V137.024H96.2667C97.4987 137.024 98.2667 137.616 98.2667 138.72V138.752C98.2667 139.712 97.5467 140.448 96.3147 140.448H94.3627ZM101.238 134.8L105.782 140.272L100.838 146H103.734L107.606 141.408H108.31L108.294 146H110.726L110.694 141.408H111.35L115.254 146H118.182L113.254 140.272L117.782 134.8H114.886L111.238 139.328H110.694L110.726 134.8H108.294L108.31 139.328H107.798L104.166 134.8H101.238ZM129.554 146V134.8H127.202L122.066 141.888V134.8H119.602V146H121.778L127.09 138.688V146H129.554ZM132.242 146H137.57C140.098 146 141.762 144.976 141.762 142.928V142.896C141.762 141.392 140.962 140.64 139.666 140.144C140.466 139.696 141.138 138.992 141.138 137.728V137.696C141.138 136.928 140.882 136.304 140.37 135.792C139.73 135.152 138.722 134.8 137.442 134.8H132.242V146ZM138.69 138.144C138.69 138.976 138.002 139.328 136.914 139.328H134.642V136.96H137.074C138.114 136.96 138.69 137.376 138.69 138.112V138.144ZM139.314 142.592V142.624C139.314 143.456 138.658 143.84 137.57 143.84H134.642V141.376H137.49C138.754 141.376 139.314 141.84 139.314 142.592ZM142.829 146H145.341L146.365 143.488H151.101L152.125 146H154.701L149.901 134.72H147.629L142.829 146ZM147.245 141.312L148.733 137.68L150.221 141.312H147.245ZM156.43 146H164.958V143.808H158.878V141.456H164.158V139.264H158.878V136.992H164.878V134.8H156.43V146ZM167.149 146H169.565V138.736L172.685 143.472H172.749L175.901 138.688V146H178.349V134.8H175.693L172.749 139.536L169.805 134.8H167.149V146Z" fill="url(#paint2_linear_117_5276)"/>
<defs>
<linearGradient id="paint0_linear_117_5276" x1="89.4297" y1="40.157" x2="143.088" y2="67.8244" gradientUnits="userSpaceOnUse">
<stop stop-color="#1E74EC"/>
<stop offset="1" stop-color="#002984"/>
</linearGradient>
<linearGradient id="paint1_linear_117_5276" x1="73.9687" y1="51.5874" x2="105.51" y2="77.6257" gradientUnits="userSpaceOnUse">
<stop stop-color="#1E74EC"/>
<stop offset="1" stop-color="#002984"/>
</linearGradient>
<linearGradient id="paint2_linear_117_5276" x1="2" y1="131.375" x2="8.5554" y2="179.025" gradientUnits="userSpaceOnUse">
<stop stop-color="#1E74EC"/>
<stop offset="1" stop-color="#002984"/>
</linearGradient>
</defs>
</svg>
