<svg width="28" height="21" viewBox="0 0 28 21" fill="none" xmlns="http://www.w3.org/2000/svg">
<rect y="0.5" width="28" height="20" rx="2" fill="#F0F0F1"/>
<mask id="mask0_10_663" style="mask-type:luminance" maskUnits="userSpaceOnUse" x="0" y="0" width="28" height="21">
<rect y="0.5" width="28" height="20" rx="2" fill="white"/>
</mask>
<g mask="url(#mask0_10_663)">
<path fill-rule="evenodd" clip-rule="evenodd" d="M28 0.5H0V1.83333H28V0.5ZM28 3.16667H0V4.5H28V3.16667ZM0 5.83333H28V7.16667H0V5.83333ZM28 8.5H0V9.83333H28V8.5ZM0 11.1667H28V12.5H0V11.1667ZM28 13.8333H0V15.1667H28V13.8333ZM0 16.5H28V17.8333H0V16.5ZM28 19.1667H0V20.5H28V19.1667Z" fill="#D02F44"/>
<rect y="0.5" width="12" height="9.33333" fill="#46467F"/>
<g filter="url(#filter0_d_10_663)">
<path fill-rule="evenodd" clip-rule="evenodd" d="M2.66659 2.49998C2.66659 2.86817 2.36811 3.16665 1.99992 3.16665C1.63173 3.16665 1.33325 2.86817 1.33325 2.49998C1.33325 2.13179 1.63173 1.83331 1.99992 1.83331C2.36811 1.83331 2.66659 2.13179 2.66659 2.49998ZM5.33325 2.49998C5.33325 2.86817 5.03478 3.16665 4.66659 3.16665C4.2984 3.16665 3.99992 2.86817 3.99992 2.49998C3.99992 2.13179 4.2984 1.83331 4.66659 1.83331C5.03478 1.83331 5.33325 2.13179 5.33325 2.49998ZM7.33325 3.16665C7.70144 3.16665 7.99992 2.86817 7.99992 2.49998C7.99992 2.13179 7.70144 1.83331 7.33325 1.83331C6.96506 1.83331 6.66659 2.13179 6.66659 2.49998C6.66659 2.86817 6.96506 3.16665 7.33325 3.16665ZM10.6666 2.49998C10.6666 2.86817 10.3681 3.16665 9.99992 3.16665C9.63173 3.16665 9.33325 2.86817 9.33325 2.49998C9.33325 2.13179 9.63173 1.83331 9.99992 1.83331C10.3681 1.83331 10.6666 2.13179 10.6666 2.49998ZM3.33325 4.49998C3.70144 4.49998 3.99992 4.2015 3.99992 3.83331C3.99992 3.46512 3.70144 3.16665 3.33325 3.16665C2.96506 3.16665 2.66659 3.46512 2.66659 3.83331C2.66659 4.2015 2.96506 4.49998 3.33325 4.49998ZM6.66659 3.83331C6.66659 4.2015 6.36811 4.49998 5.99992 4.49998C5.63173 4.49998 5.33325 4.2015 5.33325 3.83331C5.33325 3.46512 5.63173 3.16665 5.99992 3.16665C6.36811 3.16665 6.66659 3.46512 6.66659 3.83331ZM8.66658 4.49998C9.03477 4.49998 9.33325 4.2015 9.33325 3.83331C9.33325 3.46512 9.03477 3.16665 8.66658 3.16665C8.2984 3.16665 7.99992 3.46512 7.99992 3.83331C7.99992 4.2015 8.2984 4.49998 8.66658 4.49998ZM10.6666 5.16665C10.6666 5.53484 10.3681 5.83331 9.99992 5.83331C9.63173 5.83331 9.33325 5.53484 9.33325 5.16665C9.33325 4.79846 9.63173 4.49998 9.99992 4.49998C10.3681 4.49998 10.6666 4.79846 10.6666 5.16665ZM7.33325 5.83331C7.70144 5.83331 7.99992 5.53484 7.99992 5.16665C7.99992 4.79846 7.70144 4.49998 7.33325 4.49998C6.96506 4.49998 6.66659 4.79846 6.66659 5.16665C6.66659 5.53484 6.96506 5.83331 7.33325 5.83331ZM5.33325 5.16665C5.33325 5.53484 5.03478 5.83331 4.66659 5.83331C4.2984 5.83331 3.99992 5.53484 3.99992 5.16665C3.99992 4.79846 4.2984 4.49998 4.66659 4.49998C5.03478 4.49998 5.33325 4.79846 5.33325 5.16665ZM1.99992 5.83331C2.36811 5.83331 2.66659 5.53484 2.66659 5.16665C2.66659 4.79846 2.36811 4.49998 1.99992 4.49998C1.63173 4.49998 1.33325 4.79846 1.33325 5.16665C1.33325 5.53484 1.63173 5.83331 1.99992 5.83331ZM3.99992 6.49998C3.99992 6.86817 3.70144 7.16665 3.33325 7.16665C2.96506 7.16665 2.66659 6.86817 2.66659 6.49998C2.66659 6.13179 2.96506 5.83331 3.33325 5.83331C3.70144 5.83331 3.99992 6.13179 3.99992 6.49998ZM5.99992 7.16665C6.36811 7.16665 6.66659 6.86817 6.66659 6.49998C6.66659 6.13179 6.36811 5.83331 5.99992 5.83331C5.63173 5.83331 5.33325 6.13179 5.33325 6.49998C5.33325 6.86817 5.63173 7.16665 5.99992 7.16665ZM9.33325 6.49998C9.33325 6.86817 9.03477 7.16665 8.66658 7.16665C8.2984 7.16665 7.99992 6.86817 7.99992 6.49998C7.99992 6.13179 8.2984 5.83331 8.66658 5.83331C9.03477 5.83331 9.33325 6.13179 9.33325 6.49998ZM9.99992 8.49998C10.3681 8.49998 10.6666 8.2015 10.6666 7.83331C10.6666 7.46512 10.3681 7.16665 9.99992 7.16665C9.63173 7.16665 9.33325 7.46512 9.33325 7.83331C9.33325 8.2015 9.63173 8.49998 9.99992 8.49998ZM7.99992 7.83331C7.99992 8.2015 7.70144 8.49998 7.33325 8.49998C6.96506 8.49998 6.66659 8.2015 6.66659 7.83331C6.66659 7.46512 6.96506 7.16665 7.33325 7.16665C7.70144 7.16665 7.99992 7.46512 7.99992 7.83331ZM4.66659 8.49998C5.03478 8.49998 5.33325 8.2015 5.33325 7.83331C5.33325 7.46512 5.03478 7.16665 4.66659 7.16665C4.2984 7.16665 3.99992 7.46512 3.99992 7.83331C3.99992 8.2015 4.2984 8.49998 4.66659 8.49998ZM2.66659 7.83331C2.66659 8.2015 2.36811 8.49998 1.99992 8.49998C1.63173 8.49998 1.33325 8.2015 1.33325 7.83331C1.33325 7.46512 1.63173 7.16665 1.99992 7.16665C2.36811 7.16665 2.66659 7.46512 2.66659 7.83331Z" fill="url(#paint0_linear_10_663)"/>
</g>
</g>
<defs>
<filter id="filter0_d_10_663" x="1.33325" y="1.83331" width="9.33325" height="7.66669" filterUnits="userSpaceOnUse" color-interpolation-filters="sRGB">
<feFlood flood-opacity="0" result="BackgroundImageFix"/>
<feColorMatrix in="SourceAlpha" type="matrix" values="0 0 0 0 0 0 0 0 0 0 0 0 0 0 0 0 0 0 127 0" result="hardAlpha"/>
<feOffset dy="1"/>
<feColorMatrix type="matrix" values="0 0 0 0 0 0 0 0 0 0 0 0 0 0 0 0 0 0 0.06 0"/>
<feBlend mode="normal" in2="BackgroundImageFix" result="effect1_dropShadow_10_663"/>
<feBlend mode="normal" in="SourceGraphic" in2="effect1_dropShadow_10_663" result="shape"/>
</filter>
<linearGradient id="paint0_linear_10_663" x1="1.33325" y1="1.83331" x2="1.33325" y2="8.49998" gradientUnits="userSpaceOnUse">
<stop stop-color="white"/>
<stop offset="1" stop-color="#F0F0F0"/>
</linearGradient>
</defs>
</svg>
