<svg width="207" height="152" viewBox="0 0 207 152" fill="none" xmlns="http://www.w3.org/2000/svg">
<path d="M73.25 98.0002V79.0721H84.0706V98.0002H73.25ZM89.2757 98.0002V67.8031H100.096V98.0002H89.2757ZM106.904 98.0002V56.5341H117.724V98.0002H106.904ZM122.93 98.0002V46.875H133.75V98.0002H122.93Z" stroke="url(#paint0_linear_117_5271)" stroke-width="2"/>
<path d="M72.875 63.3751L125.375 31.3983M125.375 31.3983L124.567 37.7936M125.375 31.3983L118.914 29" stroke="url(#paint1_linear_117_5271)" stroke-width="2" stroke-linecap="round" stroke-linejoin="round"/>
<path d="M48.0961 145L47.2641 142.28H43.1041L42.2721 145H39.6641L43.6961 133.528H46.6561L50.7041 145H48.0961ZM45.8561 137.592C45.8027 137.411 45.7334 137.181 45.6481 136.904C45.5627 136.627 45.4774 136.344 45.3921 136.056C45.3067 135.768 45.2374 135.517 45.1841 135.304C45.1307 135.517 45.0561 135.784 44.9601 136.104C44.8747 136.413 44.7894 136.712 44.7041 137C44.6294 137.277 44.5707 137.475 44.5281 137.592L43.7121 140.248H46.6881L45.8561 137.592ZM61.5109 145H59.0949V140.072H54.5669V145H52.1509V133.576H54.5669V138.056H59.0949V133.576H61.5109V145ZM71.3773 145L70.5453 142.28H66.3853L65.5533 145H62.9453L66.9773 133.528H69.9373L73.9853 145H71.3773ZM69.1373 137.592C69.084 137.411 69.0146 137.181 68.9293 136.904C68.844 136.627 68.7586 136.344 68.6733 136.056C68.588 135.768 68.5186 135.517 68.4653 135.304C68.412 135.517 68.3373 135.784 68.2413 136.104C68.156 136.413 68.0706 136.712 67.9853 137C67.9106 137.277 67.852 137.475 67.8093 137.592L66.9933 140.248H69.9693L69.1373 137.592ZM84.4722 145H82.0562V135.592H79.2562C79.1922 136.083 79.1229 136.616 79.0482 137.192C78.9842 137.768 78.9095 138.355 78.8242 138.952C78.7495 139.539 78.6695 140.099 78.5842 140.632C78.4989 141.155 78.4135 141.619 78.3282 142.024C78.1895 142.685 78.0029 143.251 77.7682 143.72C77.5442 144.189 77.2295 144.547 76.8242 144.792C76.4295 145.037 75.9122 145.16 75.2722 145.16C75.0589 145.16 74.8562 145.144 74.6642 145.112C74.4722 145.08 74.2909 145.037 74.1202 144.984V143C74.2589 143.043 74.3922 143.08 74.5202 143.112C74.6589 143.144 74.8082 143.16 74.9682 143.16C75.1815 143.16 75.3575 143.091 75.4962 142.952C75.6349 142.813 75.7575 142.579 75.8642 142.248C75.9709 141.907 76.0775 141.437 76.1842 140.84C76.2375 140.584 76.3015 140.221 76.3762 139.752C76.4509 139.272 76.5362 138.712 76.6322 138.072C76.7389 137.421 76.8455 136.717 76.9522 135.96C77.0589 135.192 77.1602 134.397 77.2562 133.576H84.4722V145ZM87.3541 133.576H89.5301V139.096C89.5301 139.363 89.5247 139.661 89.5141 139.992C89.5034 140.323 89.4927 140.648 89.4821 140.968C89.4714 141.277 89.4607 141.549 89.4501 141.784C89.4394 142.008 89.4287 142.163 89.4181 142.248H89.4661L94.7461 133.576H97.6421V145H95.4821V139.512C95.4821 139.224 95.4874 138.909 95.4981 138.568C95.5087 138.216 95.5194 137.88 95.5301 137.56C95.5514 137.24 95.5674 136.963 95.5781 136.728C95.5994 136.483 95.6154 136.323 95.6261 136.248H95.5621L90.2661 145H87.3541V133.576ZM108.414 136.248C108.414 137.016 108.142 137.635 107.598 138.104C107.054 138.573 106.361 138.867 105.518 138.984V139.032C106.563 139.139 107.363 139.432 107.918 139.912C108.483 140.381 108.766 140.995 108.766 141.752C108.766 142.413 108.585 143.005 108.222 143.528C107.859 144.04 107.321 144.44 106.606 144.728C105.891 145.016 105.006 145.16 103.95 145.16C103.086 145.16 102.318 145.107 101.646 145C100.985 144.893 100.409 144.739 99.9179 144.536V142.504C100.249 142.664 100.622 142.803 101.038 142.92C101.454 143.027 101.875 143.112 102.302 143.176C102.729 143.229 103.123 143.256 103.486 143.256C104.499 143.256 105.23 143.112 105.678 142.824C106.137 142.525 106.366 142.109 106.366 141.576C106.366 141.032 106.035 140.637 105.374 140.392C104.713 140.136 103.822 140.008 102.702 140.008H101.63V138.12H102.59C103.497 138.12 104.201 138.061 104.702 137.944C105.203 137.827 105.555 137.656 105.758 137.432C105.961 137.208 106.062 136.941 106.062 136.632C106.062 136.237 105.886 135.928 105.534 135.704C105.193 135.469 104.675 135.352 103.982 135.352C103.395 135.352 102.841 135.437 102.318 135.608C101.806 135.779 101.326 136.003 100.878 136.28L99.8219 134.664C100.217 134.408 100.633 134.189 101.07 134.008C101.518 133.816 102.009 133.672 102.542 133.576C103.075 133.469 103.667 133.416 104.318 133.416C105.182 133.416 105.918 133.539 106.526 133.784C107.134 134.029 107.598 134.365 107.918 134.792C108.249 135.208 108.414 135.693 108.414 136.248ZM110.901 133.576H113.077V139.096C113.077 139.363 113.072 139.661 113.061 139.992C113.05 140.323 113.04 140.648 113.029 140.968C113.018 141.277 113.008 141.549 112.997 141.784C112.986 142.008 112.976 142.163 112.965 142.248H113.013L118.293 133.576H121.189V145H119.029V139.512C119.029 139.224 119.034 138.909 119.045 138.568C119.056 138.216 119.066 137.88 119.077 137.56C119.098 137.24 119.114 136.963 119.125 136.728C119.146 136.483 119.162 136.323 119.173 136.248H119.109L113.813 145H110.901V133.576ZM127.721 133.576C129.193 133.576 130.265 133.896 130.937 134.536C131.619 135.165 131.961 136.035 131.961 137.144C131.961 137.645 131.886 138.125 131.737 138.584C131.587 139.032 131.337 139.437 130.985 139.8C130.643 140.152 130.19 140.429 129.625 140.632C129.059 140.835 128.361 140.936 127.529 140.936H126.489V145H124.073V133.576H127.721ZM127.593 135.56H126.489V138.952H127.289C127.747 138.952 128.142 138.893 128.473 138.776C128.803 138.659 129.059 138.472 129.241 138.216C129.422 137.96 129.513 137.629 129.513 137.224C129.513 136.659 129.358 136.243 129.049 135.976C128.739 135.699 128.254 135.56 127.593 135.56ZM139.752 141.656C139.432 142.381 139.09 143.011 138.728 143.544C138.376 144.067 137.922 144.467 137.368 144.744C136.813 145.021 136.088 145.16 135.192 145.16C134.914 145.16 134.61 145.139 134.28 145.096C133.949 145.053 133.645 144.995 133.368 144.92V142.84C133.624 142.947 133.906 143.021 134.216 143.064C134.525 143.107 134.813 143.128 135.08 143.128C135.432 143.128 135.714 143.069 135.928 142.952C136.152 142.835 136.328 142.675 136.456 142.472C136.594 142.259 136.706 142.029 136.792 141.784L132.84 133.576H135.4L137.528 138.52C137.581 138.627 137.645 138.765 137.72 138.936C137.794 139.107 137.869 139.283 137.944 139.464C138.018 139.645 138.077 139.805 138.12 139.944H138.2C138.242 139.816 138.296 139.661 138.36 139.48C138.434 139.288 138.509 139.096 138.584 138.904C138.669 138.701 138.744 138.525 138.808 138.376L140.792 133.576H143.288L139.752 141.656ZM151.305 145H144.729V133.576H151.305V135.56H147.145V138.072H151.017V140.056H147.145V143H151.305V145ZM158.514 145L155.762 136.04H155.698C155.709 136.253 155.725 136.573 155.746 137C155.768 137.427 155.789 137.885 155.81 138.376C155.832 138.856 155.842 139.293 155.842 139.688V145H153.682V133.576H156.978L159.682 142.312H159.73L162.594 133.576H165.89V145H163.634V139.592C163.634 139.229 163.64 138.813 163.65 138.344C163.672 137.875 163.688 137.432 163.698 137.016C163.72 136.589 163.736 136.269 163.746 136.056H163.682L160.738 145H158.514Z" fill="url(#paint2_linear_117_5271)"/>
<defs>
<linearGradient id="paint0_linear_117_5271" x1="72.25" y1="53.3457" x2="125.983" y2="107.672" gradientUnits="userSpaceOnUse">
<stop stop-color="#1E74EC"/>
<stop offset="1" stop-color="#002984"/>
</linearGradient>
<linearGradient id="paint1_linear_117_5271" x1="72.875" y1="33.834" x2="106.398" y2="77.8335" gradientUnits="userSpaceOnUse">
<stop stop-color="#1E74EC"/>
<stop offset="1" stop-color="#002984"/>
</linearGradient>
<linearGradient id="paint2_linear_117_5271" x1="2" y1="131.375" x2="8.5554" y2="179.025" gradientUnits="userSpaceOnUse">
<stop stop-color="#1E74EC"/>
<stop offset="1" stop-color="#002984"/>
</linearGradient>
</defs>
</svg>
