<svg width="207" height="152" viewBox="0 0 207 152" fill="none" xmlns="http://www.w3.org/2000/svg">
<path d="M70 75H77.6774M95.2258 75H102.903M120.452 75H128.129M95.2258 35H102.903M79.871 93H87.5484M105.097 93H112.774M130.323 93H138M105.097 53H112.774M104 58V63V70M78.7742 70V63H129.226V70M71.0968 98H86.4516C87.0573 98 87.5484 97.5523 87.5484 97V71C87.5484 70.4477 87.0573 70 86.4516 70H71.0968C70.491 70 70 70.4477 70 71V97C70 97.5523 70.491 98 71.0968 98ZM96.3226 98H111.677C112.283 98 112.774 97.5523 112.774 97V71C112.774 70.4477 112.283 70 111.677 70H96.3226C95.7169 70 95.2258 70.4477 95.2258 71V97C95.2258 97.5523 95.7169 98 96.3226 98ZM121.548 98H136.903C137.509 98 138 97.5523 138 97V71C138 70.4477 137.509 70 136.903 70H121.548C120.943 70 120.452 70.4477 120.452 71V97C120.452 97.5523 120.943 98 121.548 98ZM96.3226 58H111.677C112.283 58 112.774 57.5523 112.774 57V31C112.774 30.4477 112.283 30 111.677 30H96.3226C95.7169 30 95.2258 30.4477 95.2258 31V57C95.2258 57.5523 95.7169 58 96.3226 58Z" stroke="url(#paint0_linear_117_5272)" stroke-width="2" stroke-linecap="round" stroke-linejoin="round"/>
<path d="M31.1119 145V133.576H40.1519V145H37.7359V135.592H33.5279V145H31.1119ZM46.6818 133.576C48.1538 133.576 49.2258 133.896 49.8978 134.536C50.5804 135.165 50.9218 136.035 50.9218 137.144C50.9218 137.645 50.8471 138.125 50.6978 138.584C50.5484 139.032 50.2978 139.437 49.9458 139.8C49.6044 140.152 49.1511 140.429 48.5858 140.632C48.0204 140.835 47.3218 140.936 46.4898 140.936H45.4498V145H43.0338V133.576H46.6818ZM46.5538 135.56H45.4498V138.952H46.2498C46.7084 138.952 47.1031 138.893 47.4338 138.776C47.7644 138.659 48.0204 138.472 48.2018 138.216C48.3831 137.96 48.4738 137.629 48.4738 137.224C48.4738 136.659 48.3191 136.243 48.0098 135.976C47.7004 135.699 47.2151 135.56 46.5538 135.56ZM63.4486 139.272C63.4486 140.157 63.3366 140.963 63.1126 141.688C62.8993 142.403 62.5686 143.021 62.1206 143.544C61.6833 144.067 61.118 144.467 60.4246 144.744C59.742 145.021 58.9366 145.16 58.0086 145.16C57.0806 145.16 56.27 145.021 55.5766 144.744C54.894 144.456 54.3286 144.056 53.8806 143.544C53.4433 143.021 53.1126 142.397 52.8886 141.672C52.6753 140.947 52.5686 140.141 52.5686 139.256C52.5686 138.072 52.7606 137.043 53.1446 136.168C53.5393 135.293 54.1366 134.616 54.9366 134.136C55.7473 133.645 56.7766 133.4 58.0246 133.4C59.262 133.4 60.2806 133.645 61.0806 134.136C61.8806 134.616 62.4726 135.299 62.8566 136.184C63.2513 137.059 63.4486 138.088 63.4486 139.272ZM55.1126 139.272C55.1126 140.072 55.214 140.76 55.4166 141.336C55.6193 141.912 55.934 142.355 56.3606 142.664C56.7873 142.973 57.3366 143.128 58.0086 143.128C58.702 143.128 59.2566 142.973 59.6726 142.664C60.0993 142.355 60.4086 141.912 60.6006 141.336C60.8033 140.76 60.9046 140.072 60.9046 139.272C60.9046 138.067 60.6806 137.123 60.2326 136.44C59.7846 135.757 59.0486 135.416 58.0246 135.416C57.342 135.416 56.7873 135.571 56.3606 135.88C55.934 136.189 55.6193 136.632 55.4166 137.208C55.214 137.784 55.1126 138.472 55.1126 139.272ZM69.7306 145H67.3146V135.592H64.2106V133.576H72.8346V135.592H69.7306V145ZM84.6518 139.272C84.6518 140.157 84.5398 140.963 84.3158 141.688C84.1024 142.403 83.7718 143.021 83.3238 143.544C82.8864 144.067 82.3211 144.467 81.6278 144.744C80.9451 145.021 80.1398 145.16 79.2118 145.16C78.2838 145.16 77.4731 145.021 76.7798 144.744C76.0971 144.456 75.5318 144.056 75.0838 143.544C74.6464 143.021 74.3158 142.397 74.0918 141.672C73.8784 140.947 73.7718 140.141 73.7718 139.256C73.7718 138.072 73.9638 137.043 74.3478 136.168C74.7424 135.293 75.3398 134.616 76.1398 134.136C76.9504 133.645 77.9798 133.4 79.2278 133.4C80.4651 133.4 81.4838 133.645 82.2838 134.136C83.0838 134.616 83.6758 135.299 84.0598 136.184C84.4544 137.059 84.6518 138.088 84.6518 139.272ZM76.3158 139.272C76.3158 140.072 76.4171 140.76 76.6198 141.336C76.8224 141.912 77.1371 142.355 77.5638 142.664C77.9904 142.973 78.5398 143.128 79.2118 143.128C79.9051 143.128 80.4598 142.973 80.8758 142.664C81.3024 142.355 81.6118 141.912 81.8038 141.336C82.0064 140.76 82.1078 140.072 82.1078 139.272C82.1078 138.067 81.8838 137.123 81.4358 136.44C80.9878 135.757 80.2518 135.416 79.2278 135.416C78.5451 135.416 77.9904 135.571 77.5638 135.88C77.1371 136.189 76.8224 136.632 76.6198 137.208C76.4171 137.784 76.3158 138.472 76.3158 139.272ZM90.9338 145H88.5178V135.592H85.4138V133.576H94.0378V135.592H90.9338V145ZM95.7994 133.576H97.9754V139.096C97.9754 139.363 97.97 139.661 97.9594 139.992C97.9487 140.323 97.938 140.648 97.9274 140.968C97.9167 141.277 97.906 141.549 97.8954 141.784C97.8847 142.008 97.874 142.163 97.8634 142.248H97.9114L103.191 133.576H106.087V145H103.927V139.512C103.927 139.224 103.933 138.909 103.943 138.568C103.954 138.216 103.965 137.88 103.975 137.56C103.997 137.24 104.013 136.963 104.023 136.728C104.045 136.483 104.061 136.323 104.071 136.248H104.007L98.7114 145H95.7994V133.576ZM108.971 145V133.576H118.011V145H115.595V135.592H111.387V145H108.971ZM120.893 133.576H123.069V139.096C123.069 139.363 123.064 139.661 123.053 139.992C123.042 140.323 123.032 140.648 123.021 140.968C123.01 141.277 123 141.549 122.989 141.784C122.978 142.008 122.968 142.163 122.957 142.248H123.005L128.285 133.576H131.181V145H129.021V139.512C129.021 139.224 129.026 138.909 129.037 138.568C129.048 138.216 129.058 137.88 129.069 137.56C129.09 137.24 129.106 136.963 129.117 136.728C129.138 136.483 129.154 136.323 129.165 136.248H129.101L123.805 145H120.893V133.576ZM137.713 133.576C139.185 133.576 140.257 133.896 140.929 134.536C141.612 135.165 141.953 136.035 141.953 137.144C141.953 137.645 141.878 138.125 141.729 138.584C141.58 139.032 141.329 139.437 140.977 139.8C140.636 140.152 140.182 140.429 139.617 140.632C139.052 140.835 138.353 140.936 137.521 140.936H136.481V145H134.065V133.576H137.713ZM137.585 135.56H136.481V138.952H137.281C137.74 138.952 138.134 138.893 138.465 138.776C138.796 138.659 139.052 138.472 139.233 138.216C139.414 137.96 139.505 137.629 139.505 137.224C139.505 136.659 139.35 136.243 139.041 135.976C138.732 135.699 138.246 135.56 137.585 135.56ZM149.744 141.656C149.424 142.381 149.083 143.011 148.72 143.544C148.368 144.067 147.915 144.467 147.36 144.744C146.805 145.021 146.08 145.16 145.184 145.16C144.907 145.16 144.603 145.139 144.272 145.096C143.941 145.053 143.637 144.995 143.36 144.92V142.84C143.616 142.947 143.899 143.021 144.208 143.064C144.517 143.107 144.805 143.128 145.072 143.128C145.424 143.128 145.707 143.069 145.92 142.952C146.144 142.835 146.32 142.675 146.448 142.472C146.587 142.259 146.699 142.029 146.784 141.784L142.832 133.576H145.392L147.52 138.52C147.573 138.627 147.637 138.765 147.712 138.936C147.787 139.107 147.861 139.283 147.936 139.464C148.011 139.645 148.069 139.805 148.112 139.944H148.192C148.235 139.816 148.288 139.661 148.352 139.48C148.427 139.288 148.501 139.096 148.576 138.904C148.661 138.701 148.736 138.525 148.8 138.376L150.784 133.576H153.28L149.744 141.656ZM161.297 145H154.721V133.576H161.297V135.56H157.137V138.072H161.009V140.056H157.137V143H161.297V145ZM168.506 145L165.754 136.04H165.69C165.701 136.253 165.717 136.573 165.738 137C165.76 137.427 165.781 137.885 165.802 138.376C165.824 138.856 165.834 139.293 165.834 139.688V145H163.674V133.576H166.97L169.674 142.312H169.722L172.586 133.576H175.882V145H173.626V139.592C173.626 139.229 173.632 138.813 173.642 138.344C173.664 137.875 173.68 137.432 173.69 137.016C173.712 136.589 173.728 136.269 173.738 136.056H173.674L170.73 145H168.506Z" fill="url(#paint1_linear_117_5272)"/>
<defs>
<linearGradient id="paint0_linear_117_5272" x1="70" y1="39.5625" x2="138" y2="98" gradientUnits="userSpaceOnUse">
<stop stop-color="#1E74EC"/>
<stop offset="1" stop-color="#002984"/>
</linearGradient>
<linearGradient id="paint1_linear_117_5272" x1="2" y1="131.375" x2="8.5554" y2="179.025" gradientUnits="userSpaceOnUse">
<stop stop-color="#1E74EC"/>
<stop offset="1" stop-color="#002984"/>
</linearGradient>
</defs>
</svg>
