<svg width="207" height="152" viewBox="0 0 207 152" fill="none" xmlns="http://www.w3.org/2000/svg">
<path d="M132.826 67.2756H135.5V61.2283H132.826M132.826 67.2756H129.453V61.2283H132.826M132.826 67.2756C131.415 81.0033 120.503 91.915 106.776 93.3258M132.826 61.2283C131.415 47.5006 120.503 36.589 106.776 35.1781M106.776 93.3258V89.9528H100.728V93.3258M106.776 93.3258V96H100.728V93.3258M100.728 93.3258C87.3383 91.9497 76.6275 81.5344 74.7994 68.2835M74.7994 68.2835H77.5472V62.2362H74.592M74.7994 68.2835H71.5V62.2362H74.5236H74.592M74.592 62.2362C75.5592 48.0377 86.6663 36.6233 100.728 35.1781M100.728 35.1781V38.0472H106.776V35.1781M100.728 35.1781V32H106.776V35.1781" stroke="url(#paint0_linear_117_5273)" stroke-width="2" stroke-linejoin="round"/>
<line x1="100.5" y1="77.3623" x2="106.563" y2="77.3623" stroke="url(#paint1_linear_117_5273)" stroke-width="2" stroke-linecap="round"/>
<path d="M103.579 50.1416L93.5 66.5556L100.219 74.3306H106.938L113.657 66.5556L103.579 50.1416ZM103.579 50.1416V63.3356" stroke="url(#paint2_linear_117_5273)" stroke-width="2" stroke-linejoin="round"/>
<circle cx="103.516" cy="66.2677" r="3.01575" stroke="url(#paint3_linear_117_5273)" stroke-width="2"/>
<path d="M53.5972 143.76V148.272H55.9012V146H63.8052V148.272H66.1092V143.76H64.9572L61.1492 134.72H58.5572L54.7172 143.76H53.5972ZM59.8212 137.44L62.3972 143.856H57.2452L59.8212 137.44ZM77.8819 146V134.8H75.5299L70.3939 141.888V134.8H67.9299V146H70.1059L75.4179 138.688V146H77.8819ZM81.5146 138.128C82.4426 137.36 83.4506 136.816 84.6026 136.816C85.7066 136.816 86.3626 137.248 86.3626 138.016C86.3626 138.784 85.7386 139.328 84.6026 139.328H82.4746V141.376H84.5386C85.8666 141.376 86.6666 141.808 86.6666 142.656C86.6666 143.552 85.7546 143.984 84.5546 143.984C83.2746 143.984 82.2346 143.456 81.2746 142.704L79.8186 144.464C80.9386 145.456 82.4586 146.192 84.4906 146.192C87.4666 146.192 89.1626 144.768 89.1626 142.848C89.1626 141.264 88.2506 140.576 86.9546 140.24C88.1226 139.76 88.8586 139.104 88.8586 137.632C88.8586 135.792 87.3226 134.608 84.6506 134.608C82.6506 134.608 81.2746 135.344 80.0266 136.464L81.5146 138.128ZM90.2981 146H92.8101L93.8341 143.488H98.5701L99.5941 146H102.17L97.3701 134.72H95.0981L90.2981 146ZM94.7141 141.312L96.2021 137.68L97.6901 141.312H94.7141ZM113.851 146V134.8H111.499L106.363 141.888V134.8H103.899V146H106.075L111.387 138.688V146H113.851ZM108.875 133.952C110.571 133.952 111.771 133.104 111.915 131.568H110.251C110.059 132.064 109.675 132.352 108.875 132.352C108.075 132.352 107.691 132.064 107.499 131.568H105.835C105.979 133.104 107.179 133.952 108.875 133.952ZM116.539 146H119.003V141.504H123.547V146H126.011V134.8H123.547V139.232H119.003V134.8H116.539V146ZM138.648 146V134.8H136.296L131.16 141.888V134.8H128.696V146H130.872L136.184 138.688V146H138.648ZM141.336 146H143.752V138.736L146.872 143.472H146.936L150.088 138.688V146H152.536V134.8H149.88L146.936 139.536L143.992 134.8H141.336V146Z" fill="url(#paint4_linear_117_5273)"/>
<defs>
<linearGradient id="paint0_linear_117_5273" x1="71.5" y1="41" x2="135.5" y2="96" gradientUnits="userSpaceOnUse">
<stop stop-color="#1E74EC"/>
<stop offset="1" stop-color="#002984"/>
</linearGradient>
<linearGradient id="paint1_linear_117_5273" x1="99.5" y1="78.5029" x2="99.786" y2="80.4847" gradientUnits="userSpaceOnUse">
<stop stop-color="#1E74EC"/>
<stop offset="1" stop-color="#002984"/>
</linearGradient>
<linearGradient id="paint2_linear_117_5273" x1="93.5" y1="53.5432" x2="116.664" y2="70.1321" gradientUnits="userSpaceOnUse">
<stop stop-color="#1E74EC"/>
<stop offset="1" stop-color="#002984"/>
</linearGradient>
<linearGradient id="paint3_linear_117_5273" x1="101.5" y1="64.8189" x2="105.531" y2="68.2834" gradientUnits="userSpaceOnUse">
<stop stop-color="#1E74EC"/>
<stop offset="1" stop-color="#002984"/>
</linearGradient>
<linearGradient id="paint4_linear_117_5273" x1="2" y1="131.375" x2="8.5554" y2="179.025" gradientUnits="userSpaceOnUse">
<stop stop-color="#1E74EC"/>
<stop offset="1" stop-color="#002984"/>
</linearGradient>
</defs>
</svg>
