<svg width="207" height="152" viewBox="0 0 207 152" fill="none" xmlns="http://www.w3.org/2000/svg">
<path d="M81.5505 92.0439L104.823 69.0965M86.0758 96.5059L109.348 73.5585M110.641 64.6345L124.864 50.6111V44.8743L133.268 42.3246L136.5 45.5117L133.914 53.7983H127.449L113.874 67.8217L117.752 71.6462L88.0151 101.605C88.0151 101.605 83.928 103.08 81.5505 102.243C78.5244 101.177 76.7485 99.5117 75.7323 96.5059C75.0138 94.3805 75.7323 90.7691 75.7323 90.7691L106.116 60.81L110.641 64.6345ZM80.904 56.348H90.601V47.424L82.8434 38.5H92.5404C92.5404 38.5 101.398 43.6358 103.53 48.6988C105.273 52.8371 103.53 60.1725 103.53 60.1725L105.47 61.4474L95.7727 71.0088L93.1869 68.4591C93.1869 68.4591 87.5365 69.4108 84.1364 68.4591C77.78 66.6799 72.5 56.348 72.5 56.348V48.6988L80.904 56.348ZM107.409 82.4825L124.864 99.6931C124.864 99.6931 131.905 101.729 134.561 99.0556C136.884 96.7165 135.854 90.7691 135.854 90.7691L117.106 72.2837L107.409 82.4825Z" stroke="url(#paint0_linear_117_5274)" stroke-width="2" stroke-linecap="round" stroke-linejoin="round"/>
<path d="M27.0784 146H29.5424V137.04H34.0064V146H36.4704V134.8H27.0784V146ZM39.1565 146H41.6205V142.64H43.4925C46.0045 142.64 48.0205 141.296 48.0205 138.704V138.672C48.0205 136.384 46.4045 134.8 43.7325 134.8H39.1565V146ZM41.6205 140.448V137.024H43.5245C44.7565 137.024 45.5245 137.616 45.5245 138.72V138.752C45.5245 139.712 44.8045 140.448 43.5725 140.448H41.6205ZM55.284 146.192C58.74 146.192 61.252 143.584 61.252 140.4V140.368C61.252 137.184 58.772 134.608 55.316 134.608C51.86 134.608 49.348 137.216 49.348 140.4V140.432C49.348 143.616 51.828 146.192 55.284 146.192ZM55.316 143.92C53.332 143.92 51.924 142.32 51.924 140.4V140.368C51.924 138.448 53.3 136.88 55.284 136.88C57.268 136.88 58.676 138.48 58.676 140.4V140.432C58.676 142.352 57.3 143.92 55.316 143.92ZM63.4378 146H65.9018V137.04H71.4858V134.8H63.4378V146ZM73.344 146H75.808V142.64H77.68C80.192 142.64 82.208 141.296 82.208 138.704V138.672C82.208 136.384 80.592 134.8 77.92 134.8H73.344V146ZM75.808 140.448V137.024H77.712C78.944 137.024 79.712 137.616 79.712 138.72V138.752C79.712 139.712 78.992 140.448 77.76 140.448H75.808ZM81.9465 146H84.4585L85.4825 143.488H90.2185L91.2425 146H93.8185L89.0185 134.72H86.7465L81.9465 146ZM86.3625 141.312L87.8505 137.68L89.3385 141.312H86.3625ZM95.5471 146H97.9631V138.736L101.083 143.472H101.147L104.299 138.688V146H106.747V134.8H104.091L101.147 139.536L98.2031 134.8H95.5471V146ZM109.438 146H111.854V138.736L114.974 143.472H115.038L118.19 138.688V146H120.638V134.8H117.982L115.038 139.536L112.094 134.8H109.438V146ZM133.28 146V134.8H130.928L125.792 141.888V134.8H123.328V146H125.504L130.816 138.688V146H133.28ZM135.969 146H138.433V142.64H140.305C142.817 142.64 144.833 141.296 144.833 138.704V138.672C144.833 136.384 143.217 134.8 140.545 134.8H135.969V146ZM138.433 140.448V137.024H140.337C141.569 137.024 142.337 137.616 142.337 138.72V138.752C142.337 139.712 141.617 140.448 140.385 140.448H138.433ZM150.262 146L156.486 134.8H153.75L151.094 139.92L148.198 134.8H145.414L149.718 142.16L147.526 146H150.262ZM158 146H166.528V143.808H160.448V141.456H165.728V139.264H160.448V136.992H166.448V134.8H158V146ZM168.719 146H171.135V138.736L174.255 143.472H174.319L177.471 138.688V146H179.919V134.8H177.263L174.319 139.536L171.375 134.8H168.719V146Z" fill="url(#paint1_linear_117_5274)"/>
<defs>
<linearGradient id="paint0_linear_117_5274" x1="72.5" y1="47.5" x2="136.5" y2="102.5" gradientUnits="userSpaceOnUse">
<stop stop-color="#1E74EC"/>
<stop offset="1" stop-color="#002984"/>
</linearGradient>
<linearGradient id="paint1_linear_117_5274" x1="2" y1="131.375" x2="8.5554" y2="179.025" gradientUnits="userSpaceOnUse">
<stop stop-color="#1E74EC"/>
<stop offset="1" stop-color="#002984"/>
</linearGradient>
</defs>
</svg>
