<svg width="207" height="152" viewBox="0 0 207 152" fill="none" xmlns="http://www.w3.org/2000/svg">
<path d="M117.96 82.1548C117.569 81.7647 116.936 81.7655 116.546 82.1565C116.156 82.5475 116.157 83.1806 116.548 83.5707L117.96 82.1548ZM122.536 76.9381C122.145 76.548 121.512 76.5488 121.122 76.9398C120.732 77.3308 120.732 77.9639 121.123 78.354L122.536 76.9381ZM126.712 60.0397C126.712 74.9711 114.579 87.0794 99.6061 87.0794V89.0794C115.679 89.0794 128.712 76.0801 128.712 60.0397H126.712ZM99.6061 87.0794C84.6336 87.0794 72.5 74.9711 72.5 60.0397H70.5C70.5 76.0801 83.5335 89.0794 99.6061 89.0794V87.0794ZM72.5 60.0397C72.5 45.1083 84.6336 33 99.6061 33V31C83.5335 31 70.5 43.9993 70.5 60.0397H72.5ZM99.6061 33C114.579 33 126.712 45.1083 126.712 60.0397H128.712C128.712 43.9993 115.679 31 99.6061 31V33ZM120.176 60.0397C120.176 71.3697 110.969 80.5586 99.6061 80.5586V82.5586C112.069 82.5586 122.176 72.4788 122.176 60.0397H120.176ZM99.6061 80.5586C88.2435 80.5586 79.0363 71.3697 79.0363 60.0397H77.0363C77.0363 72.4788 87.1434 82.5586 99.6061 82.5586V80.5586ZM79.0363 60.0397C79.0363 48.7097 88.2435 39.5209 99.6061 39.5209V37.5209C87.1434 37.5209 77.0363 47.6007 77.0363 60.0397H79.0363ZM99.6061 39.5209C110.969 39.5209 120.176 48.7097 120.176 60.0397H122.176C122.176 47.6007 112.069 37.5209 99.6061 37.5209V39.5209ZM116.548 83.5707L128.967 95.9603L130.379 94.5444L117.96 82.1548L116.548 83.5707ZM128.967 95.9603C129.875 96.8663 131.007 97.1202 132.074 96.9504C133.107 96.7863 134.069 96.2344 134.813 95.5425C135.556 94.8518 136.163 93.9445 136.397 92.9716C136.639 91.9658 136.48 90.8492 135.608 89.9798L134.196 91.3957C134.477 91.6758 134.567 92.0305 134.453 92.5036C134.331 93.0097 133.977 93.5889 133.451 94.078C132.927 94.566 132.314 94.8873 131.76 94.9752C131.242 95.0576 130.779 94.9427 130.379 94.5444L128.967 95.9603ZM135.608 89.9798L122.536 76.9381L121.123 78.354L134.196 91.3957L135.608 89.9798Z" fill="url(#paint0_linear_117_5275)"/>
<path d="M99.4527 46.3459L113.038 69.8211H85.8672L99.4527 46.3459Z" stroke="url(#paint1_linear_117_5275)" stroke-width="2" stroke-linejoin="round"/>
<path d="M100.511 54.1709L100.342 63.6308H98.5421L98.3731 54.1709H100.511ZM99.4455 67.5729C99.0858 67.5729 98.7782 67.4476 98.5226 67.1969C98.2669 66.9419 98.1413 66.635 98.1456 66.2762C98.1413 65.9217 98.2669 65.6192 98.5226 65.3684C98.7782 65.1134 99.0858 64.9859 99.4455 64.9859C99.7964 64.9859 100.1 65.1134 100.355 65.3684C100.611 65.6192 100.741 65.9217 100.745 66.2762C100.741 66.5139 100.678 66.7322 100.557 66.931C100.44 67.1256 100.284 67.2812 100.089 67.3979C99.8939 67.5146 99.6794 67.5729 99.4455 67.5729Z" fill="url(#paint2_linear_117_5275)"/>
<path d="M56.1708 146H58.6348V137.072H62.0428V134.8H52.7628V137.072H56.1708V146ZM63.9378 146H72.4658V143.808H66.3858V141.456H71.6658V139.264H66.3858V136.992H72.3858V134.8H63.9378V146ZM79.9045 146.192C82.0645 146.192 83.3445 145.424 84.4965 144.192L82.9285 142.608C82.0485 143.408 81.2645 143.92 79.9845 143.92C78.0645 143.92 76.7365 142.32 76.7365 140.4V140.368C76.7365 138.448 78.0965 136.88 79.9845 136.88C81.1045 136.88 81.9845 137.36 82.8485 138.144L84.4165 136.336C83.3765 135.312 82.1125 134.608 80.0005 134.608C76.5605 134.608 74.1605 137.216 74.1605 140.4V140.432C74.1605 143.648 76.6085 146.192 79.9045 146.192ZM89.077 146H91.541V137.072H94.949V134.8H85.669V137.072H89.077V146ZM106.796 146V134.8H104.444L99.308 141.888V134.8H96.844V146H99.02L104.332 138.688V146H106.796ZM109.485 146H111.949V142.64H113.821C116.333 142.64 118.349 141.296 118.349 138.704V138.672C118.349 136.384 116.733 134.8 114.061 134.8H109.485V146ZM111.949 140.448V137.024H113.853C115.085 137.024 115.853 137.616 115.853 138.72V138.752C115.853 139.712 115.133 140.448 113.901 140.448H111.949ZM123.778 146L130.002 134.8H127.266L124.61 139.92L121.714 134.8H118.93L123.234 142.16L121.042 146H123.778ZM131.516 146H140.044V143.808H133.964V141.456H139.244V139.264H133.964V136.992H139.964V134.8H131.516V146ZM142.235 146H144.651V138.736L147.771 143.472H147.835L150.987 138.688V146H153.435V134.8H150.779L147.835 139.536L144.891 134.8H142.235V146Z" fill="url(#paint3_linear_117_5275)"/>
<defs>
<linearGradient id="paint0_linear_117_5275" x1="71.5" y1="41" x2="135.5" y2="96" gradientUnits="userSpaceOnUse">
<stop stop-color="#1E74EC"/>
<stop offset="1" stop-color="#002984"/>
</linearGradient>
<linearGradient id="paint1_linear_117_5275" x1="85.8672" y1="49.6471" x2="109.612" y2="73.2655" gradientUnits="userSpaceOnUse">
<stop stop-color="#1E74EC"/>
<stop offset="1" stop-color="#002984"/>
</linearGradient>
<linearGradient id="paint2_linear_117_5275" x1="98.1455" y1="56.0556" x2="102.543" y2="56.7887" gradientUnits="userSpaceOnUse">
<stop stop-color="#1E74EC"/>
<stop offset="1" stop-color="#002984"/>
</linearGradient>
<linearGradient id="paint3_linear_117_5275" x1="2" y1="131.375" x2="8.5554" y2="179.025" gradientUnits="userSpaceOnUse">
<stop stop-color="#1E74EC"/>
<stop offset="1" stop-color="#002984"/>
</linearGradient>
</defs>
</svg>
