<svg width="129" height="128" viewBox="0 0 129 128" fill="none" xmlns="http://www.w3.org/2000/svg">
<path d="M50.4297 47.9302V32C50.4297 31.4477 50.8774 31 51.4297 31H88.4995C89.0517 31 89.4995 31.4477 89.4995 32V95.1163C89.4995 95.6686 89.0517 96.1163 88.4995 96.1163H51.4297C50.8774 96.1163 50.4297 95.6686 50.4297 95.1163V78.5349M50.4297 58.3488V68.1163M50.4297 41.4186H89.4995M50.4297 83.093H89.4995M64.453 88.6047H75.4763M64.453 46.9302H83.2902M74.8716 52.1395H83.2902" stroke="url(#paint0_linear_704_2009)" stroke-width="2" stroke-linecap="round" stroke-linejoin="round"/>
<mask id="path-2-inside-1_704_2009" fill="white">
<path fill-rule="evenodd" clip-rule="evenodd" d="M46.7452 48.1216C46.7452 47.5693 47.1929 47.1216 47.7452 47.1216H53.2174C53.7697 47.1216 54.2174 47.5693 54.2174 48.1216V50.4652C56.1719 51.0469 57.9349 52.0732 59.3891 53.4269L61.2391 52.3588C61.7174 52.0826 62.329 52.2465 62.6052 52.7248L65.3413 57.4639C65.6174 57.9422 65.4535 58.5538 64.9752 58.8299L63.1798 59.8665C63.4267 60.8704 63.5577 61.9199 63.5577 63C63.5577 64.1012 63.4216 65.1706 63.1653 66.1922L64.9752 67.2372C65.4535 67.5133 65.6174 68.1249 65.3413 68.6032L62.6052 73.3423C62.329 73.8206 61.7174 73.9845 61.2391 73.7083L59.3445 72.6145C57.8989 73.9477 56.152 74.9591 54.2174 75.5349V77.8785C54.2174 78.4307 53.7697 78.8785 53.2174 78.8785H47.7452C47.1929 78.8785 46.7452 78.4307 46.7452 77.8785V75.5349C44.7219 74.9327 42.9038 73.854 41.4211 72.4289L39.205 73.7083C38.7267 73.9845 38.1151 73.8206 37.839 73.3423L35.1029 68.6032C34.8267 68.1249 34.9906 67.5134 35.4689 67.2372L37.7343 65.9293C37.5188 64.9876 37.405 64.0071 37.405 63C37.405 62.0141 37.5141 61.0536 37.7209 60.1301L35.4689 58.8299C34.9906 58.5537 34.8267 57.9422 35.1029 57.4639L37.839 52.7248C38.1151 52.2465 38.7267 52.0826 39.205 52.3588L41.3776 53.6131C42.8682 52.1672 44.7021 51.0732 46.7452 50.4652V48.1216ZM50.4998 68C53.2612 68 55.4998 65.7614 55.4998 63C55.4998 60.2386 53.2612 58 50.4998 58C47.7383 58 45.4998 60.2386 45.4998 63C45.4998 65.7614 47.7383 68 50.4998 68Z"/>
</mask>
<path d="M54.2174 50.4652H52.2174V51.9566L53.6469 52.3821L54.2174 50.4652ZM59.3891 53.4269L58.0263 54.8908L59.1086 55.8982L60.3891 55.159L59.3891 53.4269ZM61.2391 52.3588L60.2391 50.6267V50.6267L61.2391 52.3588ZM62.6052 52.7248L60.8731 53.7248L60.8731 53.7248L62.6052 52.7248ZM65.3413 57.4639L67.0733 56.4639L65.3413 57.4639ZM64.9752 58.8299L63.9752 57.0978L64.9752 58.8299ZM63.1798 59.8665L62.1798 58.1344L60.879 58.8855L61.2377 60.3441L63.1798 59.8665ZM63.1653 66.1922L61.2254 65.7056L60.8581 67.1696L62.1653 67.9243L63.1653 66.1922ZM64.9752 67.2372L63.9752 68.9693V68.9693L64.9752 67.2372ZM65.3413 68.6032L67.0733 69.6032L65.3413 68.6032ZM62.6052 73.3423L60.8731 72.3423H60.8731L62.6052 73.3423ZM61.2391 73.7083L62.2391 71.9763L62.2391 71.9763L61.2391 73.7083ZM59.3445 72.6145L60.3445 70.8824L59.0702 70.1467L57.9885 71.1443L59.3445 72.6145ZM54.2174 75.5349L53.6469 73.618L52.2174 74.0434V75.5349H54.2174ZM46.7452 75.5349H48.7452V74.0434L47.3157 73.618L46.7452 75.5349ZM41.4211 72.4289L42.807 70.9869L41.7231 69.9451L40.4211 70.6968L41.4211 72.4289ZM39.205 73.7083L40.205 75.4404L40.205 75.4404L39.205 73.7083ZM37.839 73.3423L36.1069 74.3423H36.1069L37.839 73.3423ZM35.1029 68.6032L36.8349 67.6032L35.1029 68.6032ZM35.4689 67.2372L36.4689 68.9693L36.4689 68.9693L35.4689 67.2372ZM37.7343 65.9293L38.7343 67.6613L40.0134 66.9228L39.6839 65.4831L37.7343 65.9293ZM37.7209 60.1301L39.6726 60.5671L39.9937 59.1329L38.7209 58.398L37.7209 60.1301ZM35.4689 58.8299L36.4689 57.0978H36.4689L35.4689 58.8299ZM35.1029 57.4639L36.8349 58.4639H36.8349L35.1029 57.4639ZM37.839 52.7248L39.571 53.7248L39.571 53.7248L37.839 52.7248ZM39.205 52.3588L40.205 50.6267L40.205 50.6267L39.205 52.3588ZM41.3776 53.6131L40.3776 55.3452L41.6858 56.1005L42.7701 55.0487L41.3776 53.6131ZM46.7452 50.4652L47.3157 52.3821L48.7452 51.9566V50.4652H46.7452ZM47.7452 45.1216C46.0884 45.1216 44.7452 46.4647 44.7452 48.1216H48.7452C48.7452 48.6739 48.2975 49.1216 47.7452 49.1216V45.1216ZM53.2174 45.1216H47.7452V49.1216H53.2174V45.1216ZM56.2174 48.1216C56.2174 46.4647 54.8743 45.1216 53.2174 45.1216V49.1216C52.6651 49.1216 52.2174 48.6739 52.2174 48.1216H56.2174ZM56.2174 50.4652V48.1216H52.2174V50.4652H56.2174ZM60.7518 51.963C59.077 50.4039 57.0443 49.2198 54.7879 48.5483L53.6469 52.3821C55.2995 52.8739 56.7929 53.7425 58.0263 54.8908L60.7518 51.963ZM60.2391 50.6267L58.3891 51.6948L60.3891 55.159L62.2391 54.0908L60.2391 50.6267ZM64.3372 51.7248C63.5088 50.2899 61.674 49.7983 60.2391 50.6267L62.2391 54.0908C61.7608 54.367 61.1492 54.2031 60.8731 53.7248L64.3372 51.7248ZM67.0733 56.4639L64.3372 51.7248L60.8731 53.7248L63.6092 58.4639L67.0733 56.4639ZM65.9752 60.5619C67.4101 59.7335 67.9017 57.8987 67.0733 56.4639L63.6092 58.4639C63.3331 57.9856 63.4969 57.374 63.9752 57.0978L65.9752 60.5619ZM64.1798 61.5985L65.9752 60.5619L63.9752 57.0978L62.1798 58.1344L64.1798 61.5985ZM65.5577 63C65.5577 61.7577 65.407 60.5478 65.122 59.3888L61.2377 60.3441C61.4465 61.1929 61.5577 62.0821 61.5577 63H65.5577ZM65.1051 66.6789C65.4011 65.4994 65.5577 64.2666 65.5577 63H61.5577C61.5577 63.9358 61.4421 64.8417 61.2254 65.7056L65.1051 66.6789ZM65.9752 65.5052L64.1653 64.4602L62.1653 67.9243L63.9752 68.9693L65.9752 65.5052ZM67.0733 69.6032C67.9017 68.1684 67.4101 66.3336 65.9752 65.5052L63.9752 68.9693C63.4969 68.6931 63.3331 68.0815 63.6092 67.6032L67.0733 69.6032ZM64.3372 74.3423L67.0733 69.6032L63.6092 67.6032L60.8731 72.3423L64.3372 74.3423ZM60.2391 75.4404C61.674 76.2688 63.5088 75.7772 64.3372 74.3423L60.8731 72.3423C61.1492 71.864 61.7608 71.7001 62.2391 71.9763L60.2391 75.4404ZM58.3445 74.3465L60.2391 75.4404L62.2391 71.9763L60.3445 70.8824L58.3445 74.3465ZM54.7879 77.4518C57.0213 76.7871 59.0355 75.6202 60.7004 74.0846L57.9885 71.1443C56.7624 72.2752 55.2827 73.1311 53.6469 73.618L54.7879 77.4518ZM56.2174 77.8785V75.5349H52.2174V77.8785H56.2174ZM53.2174 80.8785C54.8743 80.8785 56.2174 79.5353 56.2174 77.8785H52.2174C52.2174 77.3262 52.6651 76.8785 53.2174 76.8785V80.8785ZM47.7452 80.8785H53.2174V76.8785H47.7452V80.8785ZM44.7452 77.8785C44.7452 79.5353 46.0884 80.8785 47.7452 80.8785V76.8785C48.2975 76.8785 48.7452 77.3262 48.7452 77.8785H44.7452ZM44.7452 75.5349V77.8785H48.7452V75.5349H44.7452ZM40.0352 73.8708C41.7428 75.5121 43.8389 76.7566 46.1747 77.4518L47.3157 73.618C45.6049 73.1088 44.0648 72.1958 42.807 70.9869L40.0352 73.8708ZM40.205 75.4404L42.4211 74.1609L40.4211 70.6968L38.205 71.9763L40.205 75.4404ZM36.1069 74.3423C36.9354 75.7772 38.7701 76.2688 40.205 75.4404L38.205 71.9763C38.6833 71.7001 39.2949 71.864 39.571 72.3423L36.1069 74.3423ZM33.3708 69.6032L36.1069 74.3423L39.571 72.3423L36.8349 67.6032L33.3708 69.6032ZM34.4689 65.5052C33.034 66.3336 32.5424 68.1684 33.3708 69.6032L36.8349 67.6032C37.1111 68.0815 36.9472 68.6931 36.4689 68.9693L34.4689 65.5052ZM36.7343 64.1972L34.4689 65.5052L36.4689 68.9693L38.7343 67.6613L36.7343 64.1972ZM35.405 63C35.405 64.1583 35.5359 65.2884 35.7847 66.3754L39.6839 65.4831C39.5017 64.6867 39.405 63.8559 39.405 63H35.405ZM35.7692 59.693C35.5305 60.7591 35.405 61.8661 35.405 63H39.405C39.405 62.1621 39.4977 61.3482 39.6726 60.5671L35.7692 59.693ZM34.4689 60.5619L36.7209 61.8621L38.7209 58.398L36.4689 57.0978L34.4689 60.5619ZM33.3708 56.4639C32.5424 57.8987 33.034 59.7335 34.4689 60.5619L36.4689 57.0978C36.9472 57.374 37.1111 57.9856 36.8349 58.4639L33.3708 56.4639ZM36.1069 51.7248L33.3708 56.4639L36.8349 58.4639L39.571 53.7248L36.1069 51.7248ZM40.205 50.6267C38.7701 49.7983 36.9354 50.2899 36.1069 51.7248L39.571 53.7248C39.2949 54.2031 38.6833 54.367 38.205 54.0908L40.205 50.6267ZM42.3776 51.8811L40.205 50.6267L38.205 54.0908L40.3776 55.3452L42.3776 51.8811ZM46.1747 48.5483C43.816 49.2503 41.7018 50.5123 39.9851 52.1775L42.7701 55.0487C44.0346 53.8221 45.5881 52.8962 47.3157 52.3821L46.1747 48.5483ZM44.7452 48.1216V50.4652H48.7452V48.1216H44.7452ZM53.4998 63C53.4998 64.6569 52.1566 66 50.4998 66V70C54.3657 70 57.4998 66.866 57.4998 63H53.4998ZM50.4998 60C52.1566 60 53.4998 61.3431 53.4998 63H57.4998C57.4998 59.134 54.3657 56 50.4998 56V60ZM47.4998 63C47.4998 61.3431 48.8429 60 50.4998 60V56C46.6338 56 43.4998 59.134 43.4998 63H47.4998ZM50.4998 66C48.8429 66 47.4998 64.6569 47.4998 63H43.4998C43.4998 66.866 46.6338 70 50.4998 70V66Z" fill="url(#paint1_linear_704_2009)" mask="url(#path-2-inside-1_704_2009)"/>
<defs>
<linearGradient id="paint0_linear_704_2009" x1="50.4297" y1="40.157" x2="104.088" y2="67.8244" gradientUnits="userSpaceOnUse">
<stop stop-color="#1E74EC"/>
<stop offset="1" stop-color="#002984"/>
</linearGradient>
<linearGradient id="paint1_linear_704_2009" x1="34.9687" y1="51.5874" x2="66.5096" y2="77.6257" gradientUnits="userSpaceOnUse">
<stop stop-color="#1E74EC"/>
<stop offset="1" stop-color="#002984"/>
</linearGradient>
</defs>
</svg>
