<svg width="80" height="80" viewBox="0 0 80 80" fill="none" xmlns="http://www.w3.org/2000/svg">
<path d="M46.5 69.5L57.6669 58.5707C58.0407 58.2049 58.5429 58 59.0659 58H71C72.1046 58 73 57.1046 73 56V18C73 16.8954 72.1046 16 71 16H10C8.89543 16 8 16.8954 8 18V56C8 57.1046 8.89543 58 10 58H40M32.5 44C32.5 44 33.1648 48 40 48C46.8352 48 47.5 44 47.5 44M36 33C36 35.7614 33.7614 38 31 38C28.2386 38 26 35.7614 26 33C26 30.2386 28.2386 28 31 28C33.7614 28 36 30.2386 36 33ZM54 33C54 35.7614 51.7614 38 49 38C46.2386 38 44 35.7614 44 33C44 30.2386 46.2386 28 49 28C51.7614 28 54 30.2386 54 33Z" stroke="#E6E8EF" stroke-width="2" stroke-linecap="round"/>
</svg>
