<svg width="80" height="80" viewBox="0 0 80 80" fill="none" xmlns="http://www.w3.org/2000/svg">
<path d="M11.6152 34C12.7992 29.0821 15.8274 26 21.8499 26H39.9999H59.7999C65.8224 26 68.7697 29.0821 69.9107 34M11.6152 34C11.1869 35.7793 10.9999 37.799 10.9999 40C10.9999 42.444 11.2304 44.8385 11.766 47M11.6152 34C4.99995 31 5.99987 50 11.766 47M11.766 47C13.0459 52.1653 16.068 56 21.8499 56C27.3057 56 32.9185 53.7618 35.4999 49.3333H43.4999C46.0889 53.73 52.7178 56 58.1499 56C63.9318 56 67.6994 52.1653 69.4192 47M69.9107 34C70.3235 35.7793 70.4999 37.799 70.4999 40C70.4999 42.444 70.1388 44.8385 69.4192 47M69.9107 34C77 30 76 51 69.4192 47" stroke="#E6E8EF" stroke-width="2" stroke-linecap="round" stroke-linejoin="round"/>
<path d="M25 23C31.25 16.3334 48.75 16.3333 55 23" stroke="#E6E8EF" stroke-width="2" stroke-linecap="round"/>
<path d="M66.0208 18.1716C65.6494 17.8001 65.2084 17.5055 64.7231 17.3045C64.2378 17.1035 63.7177 17 63.1924 17C62.6671 17 62.147 17.1035 61.6617 17.3045C61.1764 17.5055 60.7354 17.8001 60.364 18.1716M68.8492 15.3431C68.1064 14.6003 67.2245 14.011 66.2539 13.609C65.2832 13.2069 64.243 13 63.1924 13C62.1418 13 61.1015 13.2069 60.1309 13.609C59.1603 14.011 58.2784 14.6003 57.5355 15.3431M72.3848 12.8076C71.1776 11.6004 69.7445 10.6429 68.1673 9.98957C66.59 9.33625 64.8996 9 63.1924 9C61.4852 9 59.7947 9.33626 58.2175 9.98957C56.6403 10.6429 55.2072 11.6005 54 12.8076" stroke="#E6E8EF" stroke-width="2" stroke-linecap="round"/>
<path d="M33.572 44.6C33.38 44.6 33.23 44.552 33.122 44.456C33.014 44.36 32.936 44.24 32.888 44.096L29.036 32.54C29.012 32.48 29 32.426 29 32.378C29 32.27 29.036 32.18 29.108 32.108C29.18 32.036 29.27 32 29.378 32H30.962C31.13 32 31.256 32.048 31.34 32.144C31.436 32.228 31.496 32.312 31.52 32.396L34.562 41.666L37.586 32.396C37.622 32.312 37.682 32.228 37.766 32.144C37.862 32.048 37.994 32 38.162 32H39.746C39.842 32 39.926 32.036 39.998 32.108C40.082 32.18 40.124 32.27 40.124 32.378C40.124 32.426 40.112 32.48 40.088 32.54L36.236 44.096C36.188 44.24 36.11 44.36 36.002 44.456C35.894 44.552 35.744 44.6 35.552 44.6H33.572Z" fill="#E6E8EF"/>
<path d="M41.8309 44.6C41.7109 44.6 41.6089 44.558 41.5249 44.474C41.4409 44.39 41.3989 44.288 41.3989 44.168V32.45C41.3989 32.318 41.4409 32.21 41.5249 32.126C41.6089 32.042 41.7109 32 41.8309 32H46.4929C47.9449 32 49.0909 32.336 49.9309 33.008C50.7709 33.68 51.1909 34.658 51.1909 35.942C51.1909 36.83 50.9689 37.568 50.5249 38.156C50.0929 38.744 49.5109 39.17 48.7789 39.434L51.4069 44.024C51.4429 44.096 51.4609 44.162 51.4609 44.222C51.4609 44.33 51.4189 44.42 51.3349 44.492C51.2629 44.564 51.1789 44.6 51.0829 44.6H49.4449C49.2409 44.6 49.0849 44.546 48.9769 44.438C48.8689 44.33 48.7849 44.222 48.7249 44.114L46.4029 39.848H43.9009V44.168C43.9009 44.288 43.8589 44.39 43.7749 44.474C43.7029 44.558 43.6009 44.6 43.4689 44.6H41.8309ZM43.9009 37.814H46.4389C47.1709 37.814 47.7169 37.652 48.0769 37.328C48.4369 36.992 48.6169 36.524 48.6169 35.924C48.6169 35.324 48.4369 34.856 48.0769 34.52C47.7289 34.172 47.1829 33.998 46.4389 33.998H43.9009V37.814Z" fill="#E6E8EF"/>
</svg>
