<svg width="80" height="80" viewBox="0 0 80 80" fill="none" xmlns="http://www.w3.org/2000/svg">
<path d="M20 22.5V70H60V22.5M20 22.5V10H60V22.5M20 22.5H60" stroke="#E6E8EF" stroke-width="2" stroke-linejoin="round"/>
<path d="M40 47H32.85C29.6191 47 27 44.3137 27 41C27 37.6863 29.6191 35 32.85 35C34.9992 35 36.698 35.8953 37.7149 37.6667H42.2851C43.305 35.908 45.0101 35 47.15 35C50.3809 35 53 37.6863 53 41C53 44.3137 51.0309 47 47.8 47H40ZM40 47C40 47 40 48.6253 40 49.6667C40 51 40.1351 52.4833 41.3 53C41.6118 53.1383 44.55 53.3471 44.55 54.3333C44.55 57 44.55 59 44.55 59" stroke="#E6E8EF" stroke-width="2" stroke-linecap="round" stroke-linejoin="round"/>
<path d="M33 38V44M30 41H36" stroke="#E6E8EF" stroke-width="2" stroke-linecap="round"/>
<path d="M48 38C48 38.5523 47.5523 39 47 39C46.4477 39 46 38.5523 46 38C46 37.4477 46.4477 37 47 37C47.5523 37 48 37.4477 48 38Z" fill="#E6E8EF"/>
<path d="M48 44C48 44.5523 47.5523 45 47 45C46.4477 45 46 44.5523 46 44C46 43.4477 46.4477 43 47 43C47.5523 43 48 43.4477 48 44Z" fill="#E6E8EF"/>
<path d="M45 41C45 41.5523 44.5523 42 44 42C43.4477 42 43 41.5523 43 41C43 40.4477 43.4477 40 44 40C44.5523 40 45 40.4477 45 41Z" fill="#E6E8EF"/>
<path d="M51 41C51 41.5523 50.5523 42 50 42C49.4477 42 49 41.5523 49 41C49 40.4477 49.4477 40 50 40C50.5523 40 51 40.4477 51 41Z" fill="#E6E8EF"/>
</svg>
