<svg width="80" height="80" viewBox="0 0 80 80" fill="none" xmlns="http://www.w3.org/2000/svg">
<path d="M54.0419 66.5556H72.8766C73.3438 61.3704 72.7364 51 66.5693 51H53.2538C50.2498 51 48.5334 52.8782 47.5528 55.4444M54.0419 66.5556C54.1176 68.1934 54.0674 69.7479 53.9546 71H27.3236C27.3236 69.7282 27.3236 68.1784 27.4187 66.5556M54.0419 66.5556C53.8043 61.411 52.3252 55.4444 47.6473 55.4444H47.5528M47.5528 55.4444H34.3318C33.7035 55.4444 33.1316 55.5266 32.6109 55.68M32.6109 55.68C31.6671 52.9987 30.0311 51 27.3236 51H14.0081C7 51 7 61.2222 7 66.5556H27.4187M32.6109 55.68C28.7086 56.8299 27.6864 61.9829 27.4187 66.5556" stroke="#E6E8EF" stroke-width="2"/>
<path d="M26.9756 39.4C26.9756 43.4771 23.633 46.8 19.4878 46.8C15.3426 46.8 12 43.4771 12 39.4C12 35.3229 15.3426 32 19.4878 32C23.633 32 26.9756 35.3229 26.9756 39.4ZM48.1951 43.6C48.1951 47.6771 44.8525 51 40.7073 51C36.5621 51 33.2195 47.6771 33.2195 43.6C33.2195 39.5229 36.5621 36.2 40.7073 36.2C44.8525 36.2 48.1951 39.5229 48.1951 43.6ZM68 39.4C68 43.4771 64.6574 46.8 60.5122 46.8C56.367 46.8 53.0244 43.4771 53.0244 39.4C53.0244 35.3229 56.367 32 60.5122 32C64.6574 32 68 35.3229 68 39.4Z" stroke="#E6E8EF" stroke-width="2"/>
<path d="M40 6L42.9187 14.9828H52.3637L44.7225 20.5344L47.6412 29.5172L40 23.9656L32.3588 29.5172L35.2775 20.5344L27.6363 14.9828H37.0813L40 6Z" stroke="#E6E8EF" stroke-width="2" stroke-linejoin="round"/>
</svg>
